<?xml version="1.0" encoding="utf-8" ?>
<svg baseProfile="full" height="100%" version="1.1" width="100%" xmlns="http://www.w3.org/2000/svg" xmlns:ev="http://www.w3.org/2001/xml-events" xmlns:xlink="http://www.w3.org/1999/xlink"><defs /><rect fill="white" height="1360mm" width="2179mm" x="0mm" y="0mm" /><rect fill="black" height="210mm" width="297mm" x="50mm" y="50mm" /><rect fill="black" height="210mm" width="297mm" x="644mm" y="50mm" /><rect fill="black" height="210mm" width="297mm" x="1238mm" y="50mm" /><rect fill="black" height="210mm" width="297mm" x="1832mm" y="50mm" /><rect fill="black" height="210mm" width="297mm" x="347mm" y="260mm" /><rect fill="black" height="210mm" width="297mm" x="941mm" y="260mm" /><rect fill="black" height="210mm" width="297mm" x="1535mm" y="260mm" /><rect fill="black" height="210mm" width="297mm" x="50mm" y="470mm" /><rect fill="black" height="210mm" width="297mm" x="644mm" y="470mm" /><rect fill="black" height="210mm" width="297mm" x="1238mm" y="470mm" /><rect fill="black" height="210mm" width="297mm" x="1832mm" y="470mm" /><rect fill="black" height="210mm" width="297mm" x="347mm" y="680mm" /><rect fill="black" height="210mm" width="297mm" x="941mm" y="680mm" /><rect fill="black" height="210mm" width="297mm" x="1535mm" y="680mm" /><rect fill="black" height="210mm" width="297mm" x="50mm" y="890mm" /><rect fill="black" height="210mm" width="297mm" x="644mm" y="890mm" /><rect fill="black" height="210mm" width="297mm" x="1238mm" y="890mm" /><rect fill="black" height="210mm" width="297mm" x="1832mm" y="890mm" /><rect fill="black" height="210mm" width="297mm" x="347mm" y="1100mm" /><rect fill="black" height="210mm" width="297mm" x="941mm" y="1100mm" /><rect fill="black" height="210mm" width="297mm" x="1535mm" y="1100mm" /></svg>