<?xml version="1.0" encoding="utf-8" ?>
<svg baseProfile="full" height="100%" version="1.1" width="100%" xmlns="http://www.w3.org/2000/svg" xmlns:ev="http://www.w3.org/2001/xml-events" xmlns:xlink="http://www.w3.org/1999/xlink"><defs /><rect fill="white" height="940mm" width="1671.111111111111mm" x="0mm" y="0mm" /><rect fill="black" height="20mm" width="20mm" x="60mm" y="30mm" /><rect fill="black" height="20mm" width="297mm" x="377mm" y="30mm" /><rect fill="black" height="20mm" width="297mm" x="971mm" y="30mm" /><rect fill="black" height="20mm" width="20mm" x="1565mm" y="30mm" /><rect fill="black" height="210mm" width="297mm" x="80mm" y="50mm" /><rect fill="black" height="210mm" width="297mm" x="674mm" y="50mm" /><rect fill="black" height="210mm" width="297mm" x="1268mm" y="50mm" /><rect fill="black" height="210mm" width="20mm" x="60mm" y="260mm" /><rect fill="black" height="210mm" width="297mm" x="377mm" y="260mm" /><rect fill="black" height="210mm" width="297mm" x="971mm" y="260mm" /><rect fill="black" height="210mm" width="20mm" x="1565mm" y="260mm" /><rect fill="black" height="210mm" width="297mm" x="80mm" y="470mm" /><rect fill="black" height="210mm" width="297mm" x="674mm" y="470mm" /><rect fill="black" height="210mm" width="297mm" x="1268mm" y="470mm" /><rect fill="black" height="210mm" width="20mm" x="60mm" y="680mm" /><rect fill="black" height="210mm" width="297mm" x="377mm" y="680mm" /><rect fill="black" height="210mm" width="297mm" x="971mm" y="680mm" /><rect fill="black" height="210mm" width="20mm" x="1565mm" y="680mm" /><rect fill="black" height="20mm" width="297mm" x="80mm" y="890mm" /><rect fill="black" height="20mm" width="297mm" x="674mm" y="890mm" /><rect fill="black" height="20mm" width="297mm" x="1268mm" y="890mm" /></svg>