<?xml version="1.0" encoding="UTF-8" standalone="no"?>
<svg
   xmlns:dc="http://purl.org/dc/elements/1.1/"
   xmlns:cc="http://creativecommons.org/ns#"
   xmlns:rdf="http://www.w3.org/1999/02/22-rdf-syntax-ns#"
   xmlns:svg="http://www.w3.org/2000/svg"
   xmlns="http://www.w3.org/2000/svg"
   xmlns:sodipodi="http://sodipodi.sourceforge.net/DTD/sodipodi-0.dtd"
   xmlns:inkscape="http://www.inkscape.org/namespaces/inkscape"
   viewBox="0 0 793.7007874015749 1122.5196850393702"
   width="793.7007874015749"
   height="1122.5196850393702"
   version="1.1"
   id="svg120"
   sodipodi:docname="grid55x85_5x4.svg"
   inkscape:version="1.0.1 (0767f8302a, 2020-10-17)"
   inkscape:export-filename="/home/filip/Coding/nonlinear_projector_calibration/materials/55x85_5x4_with_border.png"
   inkscape:export-xdpi="40"
   inkscape:export-ydpi="40">
  <metadata
     id="metadata124">
    <rdf:RDF>
      <cc:Work
         rdf:about="">
        <dc:format>image/svg+xml</dc:format>
        <dc:type
           rdf:resource="http://purl.org/dc/dcmitype/StillImage" />
        <dc:title></dc:title>
      </cc:Work>
    </rdf:RDF>
  </metadata>
  <sodipodi:namedview
     pagecolor="#ffffff"
     bordercolor="#666666"
     borderopacity="1"
     objecttolerance="10"
     gridtolerance="10"
     guidetolerance="10"
     inkscape:pageopacity="0"
     inkscape:pageshadow="2"
     inkscape:window-width="1848"
     inkscape:window-height="1016"
     id="namedview122"
     showgrid="false"
     inkscape:zoom="0.19197882"
     inkscape:cx="940.48681"
     inkscape:cy="-52.1789"
     inkscape:window-x="1032"
     inkscape:window-y="27"
     inkscape:window-maximized="1"
     inkscape:current-layer="g50" />
  <defs
     id="defs14">
    <marker
       id="DistanceX"
       orient="auto"
       refX="0.0"
       refY="0.0"
       style="overflow:visible">
      <path
         d="M 3,-3 L -3,3 M 0,-5 L  0,5"
         style="stroke:#000000; stroke-width:0.5"
         id="path2" />
    </marker>
    <pattern
       id="Hatch"
       patternUnits="userSpaceOnUse"
       width="8"
       height="8"
       x="0"
       y="0">
      <path
         d="M8 4 l-4,4"
         stroke="#000000"
         stroke-width="0.25"
         linecap="square"
         id="path5" />
      <path
         d="M6 2 l-4,4"
         stroke="#000000"
         stroke-width="0.25"
         linecap="square"
         id="path7" />
      <path
         d="M4 0 l-4,4"
         stroke="#000000"
         stroke-width="0.25"
         linecap="square"
         id="path9" />
    </pattern>
    <symbol
       id="*Model_Space" />
    <symbol
       id="*Paper_Space" />
  </defs>
  <g
     inkscape:groupmode="layer"
     inkscape:label="0"
     id="g50">
    <path
       d="M -656.47187,1358.8939 H 3920.863 V -1215.856 H -656.47187 Z"
       style="fill:#ffffff;fill-opacity:1;stroke:#007f00;stroke-width:0;stroke-linecap:round;stroke-miterlimit:4;stroke-dasharray:none"
       id="path114"
       inkscape:export-xdpi="40.267971"
       inkscape:export-ydpi="40.267971" />
  </g>
  <g
     inkscape:groupmode="layer"
     inkscape:label="final"
     id="g116">
    <path
       d="M -188.976378,1311.496063 L -188.976378,1311.496063 L -188.976378,1311.496063 L -188.976378,1311.496063 L -188.976378,1311.496063 z"
       style="fill:none;stroke:#007F00;stroke-linecap:round;stroke-width:0;stroke-miterlimit:4;stroke-dasharray:none"
       id="path52" />
    <path
       d="M -188.976378,1311.496063 L 0.000000,1311.496063 L 0.000000,1122.519685 L -188.976378,1122.519685 L -188.976378,1311.496063 z"
       style="fill:#000000;stroke:#007F00;stroke-linecap:round;fill-opacity:1;stroke-width:0;stroke-miterlimit:4;stroke-dasharray:none"
       id="path54" />
    <path
       d="M 0.000000,1122.519685 L -188.976378,1122.519685 L -188.976378,366.614173 L 0.000000,366.614173 L 0.000000,1122.519685 z"
       style="fill:#ffffff;stroke:#007F00;stroke-linecap:round;fill-opacity:1;stroke-width:0;stroke-miterlimit:4;stroke-dasharray:none"
       id="path56" />
    <path
       d="M 0.000000,366.614173 L -188.976378,366.614173 L -188.976378,-200.314961 L 0.000000,-200.314961 L 0.000000,366.614173 z"
       style="fill:#000000;stroke:#007F00;stroke-linecap:round;fill-opacity:1;stroke-width:0;stroke-miterlimit:4;stroke-dasharray:none"
       id="path58" />
    <path
       d="M 0.000000,-200.314961 L -188.976378,-200.314961 L -188.976378,-956.220472 L 0.000000,-956.220472 L 0.000000,-200.314961 z"
       style="fill:#ffffff;stroke:#007F00;stroke-linecap:round;fill-opacity:1;stroke-width:0;stroke-miterlimit:4;stroke-dasharray:none"
       id="path60" />
    <path
       d="M 0.000000,-956.220472 L -188.976378,-956.220472 L -188.976378,-1145.196850 L 0.000000,-1145.196850 L 0.000000,-956.220472 z"
       style="fill:#000000;stroke:#007F00;stroke-linecap:round;fill-opacity:1;stroke-width:0;stroke-miterlimit:4;stroke-dasharray:none"
       id="path62" />
    <path
       d="M 3401.574803,1311.496063 L 3212.598425,1311.496063 L 3212.598425,1122.519685 L 3401.574803,1122.519685 L 3401.574803,1311.496063 z"
       style="fill:#ffffff;stroke:#007F00;stroke-linecap:round;fill-opacity:1;stroke-width:0;stroke-miterlimit:4;stroke-dasharray:none"
       id="path64" />
    <path
       d="M 3401.574803,1122.519685 L 3212.598425,1122.519685 L 3212.598425,366.614173 L 3401.574803,366.614173 L 3401.574803,1122.519685 z"
       style="fill:#000000;stroke:#007F00;stroke-linecap:round;fill-opacity:1;stroke-width:0;stroke-miterlimit:4;stroke-dasharray:none"
       id="path66" />
    <path
       d="M 3401.574803,366.614173 L 3212.598425,366.614173 L 3212.598425,-200.314961 L 3401.574803,-200.314961 L 3401.574803,366.614173 z"
       style="fill:#ffffff;stroke:#007F00;stroke-linecap:round;fill-opacity:1;stroke-width:0;stroke-miterlimit:4;stroke-dasharray:none"
       id="path68" />
    <path
       d="M 3401.574803,-200.314961 L 3212.598425,-200.314961 L 3212.598425,-956.220472 L 3401.574803,-956.220472 L 3401.574803,-200.314961 z"
       style="fill:#000000;stroke:#007F00;stroke-linecap:round;fill-opacity:1;stroke-width:0;stroke-miterlimit:4;stroke-dasharray:none"
       id="path70" />
    <path
       d="M 3401.574803,-1145.196850 L 3212.598425,-1145.196850 L 3212.598425,-956.220472 L 3401.574803,-956.220472 L 3401.574803,-1145.196850 z"
       style="fill:#ffffff;stroke:#007F00;stroke-linecap:round;fill-opacity:1;stroke-width:0;stroke-miterlimit:4;stroke-dasharray:none"
       id="path72" />
    <path
       d="M 0.000000,1122.519685 L 755.905512,1122.519685 L 755.905512,366.614173 L 0.000000,366.614173 L 0.000000,1122.519685 z"
       style="fill:#000000;stroke:#007F00;stroke-linecap:round;fill-opacity:1;stroke-width:0;stroke-miterlimit:4;stroke-dasharray:none"
       id="path74" />
    <path
       d="M 755.905512,1122.519685 L 1606.299213,1122.519685 L 1606.299213,366.614173 L 755.905512,366.614173 L 755.905512,1122.519685 z"
       style="fill:#ffffff;stroke:#007F00;stroke-linecap:round;fill-opacity:1;stroke-width:0;stroke-miterlimit:4;stroke-dasharray:none"
       id="path76" />
    <path
       d="M 0.000000,366.614173 L 755.905512,366.614173 L 755.905512,-200.314961 L 0.000000,-200.314961 L 0.000000,366.614173 z"
       style="fill:#ffffff;stroke:#007F00;stroke-linecap:round;fill-opacity:1;stroke-width:0;stroke-miterlimit:4;stroke-dasharray:none"
       id="path78" />
    <path
       d="M 0.000000,-200.314961 L 755.905512,-200.314961 L 755.905512,-956.220472 L 0.000000,-956.220472 L 0.000000,-200.314961 z"
       style="fill:#000000;stroke:#007F00;stroke-linecap:round;fill-opacity:1;stroke-width:0;stroke-miterlimit:4;stroke-dasharray:none"
       id="path80" />
    <path
       d="M 0.000000,-956.220472 L 755.905512,-956.220472 L 755.905512,-1145.196850 L 0.000000,-1145.196850 L 0.000000,-956.220472 z"
       style="fill:#ffffff;stroke:#007F00;stroke-linecap:round;fill-opacity:1;stroke-width:0;stroke-miterlimit:4;stroke-dasharray:none"
       id="path82" />
    <path
       d="M 0.000000,1311.496063 L 755.905512,1311.496063 L 755.905512,1122.519685 L 0.000000,1122.519685 L 0.000000,1311.496063 z"
       style="fill:#ffffff;stroke:#007F00;stroke-linecap:round;fill-opacity:1;stroke-width:0;stroke-miterlimit:4;stroke-dasharray:none"
       id="path84" />
    <path
       d="M 3212.598425,1311.496063 L 2456.692913,1311.496063 L 2456.692913,1122.519685 L 3212.598425,1122.519685 L 3212.598425,1311.496063 z"
       style="fill:#000000;stroke:#007F00;stroke-linecap:round;fill-opacity:1;stroke-width:0;stroke-miterlimit:4;stroke-dasharray:none"
       id="path86" />
    <path
       d="M 3212.598425,1122.519685 L 2456.692913,1122.519685 L 2456.692913,366.614173 L 3212.598425,366.614173 L 3212.598425,1122.519685 z"
       style="fill:#ffffff;stroke:#007F00;stroke-linecap:round;fill-opacity:1;stroke-width:0;stroke-miterlimit:4;stroke-dasharray:none"
       id="path88" />
    <path
       d="M 3212.598425,366.614173 L 2456.692913,366.614173 L 2456.692913,-200.314961 L 3212.598425,-200.314961 L 3212.598425,366.614173 z"
       style="fill:#000000;stroke:#007F00;stroke-linecap:round;fill-opacity:1;stroke-width:0;stroke-miterlimit:4;stroke-dasharray:none"
       id="path90" />
    <path
       d="M 3212.598425,-200.314961 L 2456.692913,-200.314961 L 2456.692913,-956.220472 L 3212.598425,-956.220472 L 3212.598425,-200.314961 z"
       style="fill:#ffffff;stroke:#007F00;stroke-linecap:round;fill-opacity:1;stroke-width:0;stroke-miterlimit:4;stroke-dasharray:none"
       id="path92" />
    <path
       d="M 3212.598425,-956.220472 L 2456.692913,-956.220472 L 2456.692913,-1145.196850 L 3212.598425,-1145.196850 L 3212.598425,-956.220472 z"
       style="fill:#000000;stroke:#007F00;stroke-linecap:round;fill-opacity:1;stroke-width:0;stroke-miterlimit:4;stroke-dasharray:none"
       id="path94" />
    <path
       d="M 1606.299213,1122.519685 L 2456.692913,1122.519685 L 2456.692913,1311.496063 L 1606.299213,1311.496063 L 1606.299213,1122.519685 z"
       style="fill:#ffffff;stroke:#007F00;stroke-linecap:round;fill-opacity:1;stroke-width:0;stroke-miterlimit:4;stroke-dasharray:none"
       id="path96" />
    <path
       d="M 1606.299213,1122.519685 L 755.905512,1122.519685 L 755.905512,1311.496063 L 1606.299213,1311.496063 L 1606.299213,1122.519685 z"
       style="fill:#000000;stroke:#007F00;stroke-linecap:round;fill-opacity:1;stroke-width:0;stroke-miterlimit:4;stroke-dasharray:none"
       id="path98" />
    <path
       d="M 2456.692913,366.614173 L 1606.299213,366.614173 L 1606.299213,1122.519685 L 2456.692913,1122.519685 L 2456.692913,366.614173 z"
       style="fill:#000000;stroke:#007F00;stroke-linecap:round;fill-opacity:1;stroke-width:0;stroke-miterlimit:4;stroke-dasharray:none"
       id="path100" />
    <path
       d="M 755.905512,366.614173 L 1606.299213,366.614173 L 1606.299213,-200.314961 L 755.905512,-200.314961 L 755.905512,366.614173 z"
       style="fill:#000000;stroke:#007F00;stroke-linecap:round;fill-opacity:1;stroke-width:0;stroke-miterlimit:4;stroke-dasharray:none"
       id="path102" />
    <path
       d="M 755.905512,-956.220472 L 1606.299213,-956.220472 L 1606.299213,-200.314961 L 755.905512,-200.314961 L 755.905512,-956.220472 z"
       style="fill:#ffffff;stroke:#007F00;stroke-linecap:round;fill-opacity:1;stroke-width:0;stroke-miterlimit:4;stroke-dasharray:none"
       id="path104" />
    <path
       d="M 755.905512,-1145.196850 L 1606.299213,-1145.196850 L 1606.299213,-956.220472 L 755.905512,-956.220472 L 755.905512,-1145.196850 z"
       style="fill:#000000;stroke:#007F00;stroke-linecap:round;fill-opacity:1;stroke-width:0;stroke-miterlimit:4;stroke-dasharray:none"
       id="path106" />
    <path
       d="M 1606.299213,366.614173 L 2456.692913,366.614173 L 2456.692913,-200.314961 L 1606.299213,-200.314961 L 1606.299213,366.614173 z"
       style="fill:#ffffff;stroke:#007F00;stroke-linecap:round;fill-opacity:1;stroke-width:0;stroke-miterlimit:4;stroke-dasharray:none"
       id="path108" />
    <path
       d="M 1606.299213,-200.314961 L 2456.692913,-200.314961 L 2456.692913,-956.220472 L 1606.299213,-956.220472 L 1606.299213,-200.314961 z"
       style="fill:#000000;stroke:#007F00;stroke-linecap:round;fill-opacity:1;stroke-width:0;stroke-miterlimit:4;stroke-dasharray:none"
       id="path110" />
    <path
       d="M 1606.299213,-956.220472 L 2456.692913,-956.220472 L 2456.692913,-1145.196850 L 1606.299213,-1145.196850 L 1606.299213,-956.220472 z"
       style="fill:#ffffff;stroke:#007F00;stroke-linecap:round;fill-opacity:1;stroke-width:0;stroke-miterlimit:4;stroke-dasharray:none"
       id="path112" />
  </g>
  <desc
     id="desc118">grid55x85_5x4.dxf - scale = 1.000000, origin = (0.000000, 0.000000), method = file</desc>
</svg>
